# xmcd CD database file
#
# Track frame offsets:
#	150
#	19187
#	34370
#	48275
#	63282
#	80470
#	96745
#	112697
#	128802
#	147722
#	161765
#
# Disc length: 2308 seconds
#
# Revision: 0
# Processed by: cddbd v1.4PL0 Copyright (c) Steve Scherf et al.
# Submitted via: CDex 1.40Beta9
#
DISCID=9809020b
DTITLE=John Paul Williams - Senses
DYEAR=2000
DGENRE=Blues
TTITLE0=Fantasy
TTITLE1=Whisper
TTITLE2=Linger
TTITLE3=This Town
TTITLE4=Sweeter Than Wine
TTITLE5=Blow Em Away
TTITLE6=This Cloud
TTITLE7=98.6 Degrees
TTITLE8=Essence
TTITLE9=Poisonous Kiss
TTITLE10=Go On loving you
EXTD=YEAR: 2000 ID3G: 0
EXTT0=
EXTT1=
EXTT2=
EXTT3=
EXTT4=
EXTT5=
EXTT6=
EXTT7=
EXTT8=
EXTT9=
EXTT10=
PLAYORDER=
